HIERARCHY
ROOT Root
{
  OFFSET 0.0 0.0 0.0
  CHANNELS 6 Xposition Yposition Zposition Zrotation Yrotation Xrotation
  JOINT Hips
  {
    OFFSET 0.0 100.0 0.0
    CHANNELS 6 Xposition Yposition Zposition Zrotation Yrotation Xrotation
    JOINT Spine1
    {
      OFFSET 5.003913 -0.037094 -0.013727
      CHANNELS 3 Zrotation Yrotation Xrotation
      JOINT Spine2
      {
        OFFSET 7.125363 -1e-06 0.0
        CHANNELS 3 Zrotation Yrotation Xrotation
        JOINT Chest
        {
          OFFSET 7.594027 1e-06 0.0
          CHANNELS 3 Zrotation Yrotation Xrotation
          JOINT Neck1
          {
            OFFSET 26.313086 -0.460272 -0.181672
            CHANNELS 3 Zrotation Yrotation Xrotation
            JOINT Neck2
            {
              OFFSET 8.045911 0.0 0.0
              CHANNELS 3 Zrotation Yrotation Xrotation
              JOINT Head
              {
                OFFSET 6.432774 0.0 0.0
                CHANNELS 3 Zrotation Yrotation Xrotation
                JOINT HeadEnd
                {
                  OFFSET 16.169773 0.06451 0.00362
                  CHANNELS 3 Zrotation Yrotation Xrotation
                }
                JOINT Jaw
                {
                  OFFSET 0.108741 3.12938 0.002639
                  CHANNELS 3 Zrotation Yrotation Xrotation
                }
                JOINT LeftEye
                {
                  OFFSET 4.45173 8.166359 3.206392
                  CHANNELS 3 Zrotation Yrotation Xrotation
                }
                JOINT RightEye
                {
                  OFFSET 4.436895 8.135758 -3.222429
                  CHANNELS 3 Zrotation Yrotation Xrotation
                }
              }
            }
          }
          JOINT LeftShoulder
          {
            OFFSET 23.218927 5.195579 1.621656
            CHANNELS 3 Zrotation Yrotation Xrotation
            JOINT LeftArm
            {
              OFFSET 15.902118 2e-06 -2e-06
              CHANNELS 3 Zrotation Yrotation Xrotation
              JOINT LeftForeArm
              {
                OFFSET 28.739307 0.0 -1e-06
                CHANNELS 3 Zrotation Yrotation Xrotation
                JOINT LeftHand
                {
                  OFFSET 27.093981 -4e-06 0.0
                  CHANNELS 3 Zrotation Yrotation Xrotation
                  JOINT LeftHandThumb1
                  {
                    OFFSET 2.276781 3.380274 0.83384
                    CHANNELS 3 Zrotation Yrotation Xrotation
                    JOINT LeftHandThumb2
                    {
                      OFFSET 4.705309 -1e-06 -1e-06
                      CHANNELS 3 Zrotation Yrotation Xrotation
                      JOINT LeftHandThumb3
                      {
                        OFFSET 2.798515 0.0 3e-06
                        CHANNELS 3 Zrotation Yrotation Xrotation
                        JOINT LeftHandThumbEnd
                        {
                          OFFSET 3.180793 4e-06 -4e-06
                          CHANNELS 3 Zrotation Yrotation Xrotation
                        }
                      }
                    }
                  }
                  JOINT LeftHandIndex1
                  {
                    OFFSET 3.247786 2.352677 0.137192
                    CHANNELS 3 Zrotation Yrotation Xrotation
                    JOINT LeftHandIndex2
                    {
                      OFFSET 6.367095 1e-06 0.0
                      CHANNELS 3 Zrotation Yrotation Xrotation
                      JOINT LeftHandIndex3
                      {
                        OFFSET 3.662364 0.0 0.0
                        CHANNELS 3 Zrotation Yrotation Xrotation
                        JOINT LeftHandIndex4
                        {
                          OFFSET 2.329242 4e-06 -4e-06
                          CHANNELS 3 Zrotation Yrotation Xrotation
                          JOINT LeftHandIndexEnd
                          {
                            OFFSET 2.767823 1e-06 0.0
                            CHANNELS 3 Zrotation Yrotation Xrotation
                          }
                        }
                      }
                    }
                  }
                  JOINT LeftHandMiddle1
                  {
                    OFFSET 3.163612 0.945023 -0.406112
                    CHANNELS 3 Zrotation Yrotation Xrotation
                    JOINT LeftHandMiddle2
                    {
                      OFFSET 6.276789 3e-06 0.0
                      CHANNELS 3 Zrotation Yrotation Xrotation
                      JOINT LeftHandMiddle3
                      {
                        OFFSET 4.35652 -1e-06 4e-06
                        CHANNELS 3 Zrotation Yrotation Xrotation
                        JOINT LeftHandMiddle4
                        {
                          OFFSET 2.996877 0.0 8e-06
                          CHANNELS 3 Zrotation Yrotation Xrotation
                          JOINT LeftHandMiddleEnd
                          {
                            OFFSET 2.323256 3e-06 -4e-06
                            CHANNELS 3 Zrotation Yrotation Xrotation
                          }
                        }
                      }
                    }
                  }
                  JOINT LeftHandRing1
                  {
                    OFFSET 2.882606 -0.309162 0.107445
                    CHANNELS 3 Zrotation Yrotation Xrotation
                    JOINT LeftHandRing2
                    {
                      OFFSET 6.033198 0.0 4e-06
                      CHANNELS 3 Zrotation Yrotation Xrotation
                      JOINT LeftHandRing3
                      {
                        OFFSET 4.350578 3e-06 0.0
                        CHANNELS 3 Zrotation Yrotation Xrotation
                        JOINT LeftHandRing4
                        {
                          OFFSET 2.651321 2e-06 -7e-06
                          CHANNELS 3 Zrotation Yrotation Xrotation
                          JOINT LeftHandRingEnd
                          {
                            OFFSET 1.937663 1e-06 -4e-06
                            CHANNELS 3 Zrotation Yrotation Xrotation
                          }
                        }
                      }
                    }
                  }
                  JOINT LeftHandPinky1
                  {
                    OFFSET 2.865315 -1.525436 0.575687
                    CHANNELS 3 Zrotation Yrotation Xrotation
                    JOINT LeftHandPinky2
                    {
                      OFFSET 5.54936 1e-06 -8e-06
                      CHANNELS 3 Zrotation Yrotation Xrotation
                      JOINT LeftHandPinky3
                      {
                        OFFSET 3.070974 0.0 -4e-06
                        CHANNELS 3 Zrotation Yrotation Xrotation
                        JOINT LeftHandPinky4
                        {
                          OFFSET 1.549672 1e-06 0.0
                          CHANNELS 3 Zrotation Yrotation Xrotation
                          JOINT LeftHandPinkyEnd
                          {
                            OFFSET 1.952123 0.0 0.0
                            CHANNELS 3 Zrotation Yrotation Xrotation
                          }
                        }
                      }
                    }
                  }
                }
              }
            }
          }
          JOINT RightShoulder
          {
            OFFSET 23.161716 5.296122 -1.380114
            CHANNELS 3 Zrotation Yrotation Xrotation
            JOINT RightArm
            {
              OFFSET -16.027195 -2e-06 1.1e-05
              CHANNELS 3 Zrotation Yrotation Xrotation
              JOINT RightForeArm
              {
                OFFSET -28.736639 4e-06 2e-06
                CHANNELS 3 Zrotation Yrotation Xrotation
                JOINT RightHand
                {
                  OFFSET -27.133619 6e-06 0.0
                  CHANNELS 3 Zrotation Yrotation Xrotation
                  JOINT RightHandThumb1
                  {
                    OFFSET -2.274328 -3.351035 -0.83067
                    CHANNELS 3 Zrotation Yrotation Xrotation
                    JOINT RightHandThumb2
                    {
                      OFFSET -4.703594 -3e-06 2e-06
                      CHANNELS 3 Zrotation Yrotation Xrotation
                      JOINT RightHandThumb3
                      {
                        OFFSET -2.794935 -4e-06 -3e-06
                        CHANNELS 3 Zrotation Yrotation Xrotation
                        JOINT RightHandThumbEnd
                        {
                          OFFSET -3.183852 4e-06 1e-06
                          CHANNELS 3 Zrotation Yrotation Xrotation
                        }
                      }
                    }
                  }
                  JOINT RightHandIndex1
                  {
                    OFFSET -3.253496 -2.33755 -0.127667
                    CHANNELS 3 Zrotation Yrotation Xrotation
                    JOINT RightHandIndex2
                    {
                      OFFSET -6.344434 0.0 0.0
                      CHANNELS 3 Zrotation Yrotation Xrotation
                      JOINT RightHandIndex3
                      {
                        OFFSET -3.654871 0.0 -8e-06
                        CHANNELS 3 Zrotation Yrotation Xrotation
                        JOINT RightHandIndex4
                        {
                          OFFSET -2.327586 -1e-06 0.0
                          CHANNELS 3 Zrotation Yrotation Xrotation
                          JOINT RightHandIndexEnd
                          {
                            OFFSET -2.770001 3e-06 8e-06
                            CHANNELS 3 Zrotation Yrotation Xrotation
                          }
                        }
                      }
                    }
                  }
                  JOINT RightHandMiddle1
                  {
                    OFFSET -3.168223 -0.944764 0.411762
                    CHANNELS 3 Zrotation Yrotation Xrotation
                    JOINT RightHandMiddle2
                    {
                      OFFSET -6.266691 -1e-06 -4e-06
                      CHANNELS 3 Zrotation Yrotation Xrotation
                      JOINT RightHandMiddle3
                      {
                        OFFSET -4.348901 0.0 0.0
                        CHANNELS 3 Zrotation Yrotation Xrotation
                        JOINT RightHandMiddle4
                        {
                          OFFSET -3.00024 2e-06 -4e-06
                          CHANNELS 3 Zrotation Yrotation Xrotation
                          JOINT RightHandMiddleEnd
                          {
                            OFFSET -2.321477 -4e-06 -4e-06
                            CHANNELS 3 Zrotation Yrotation Xrotation
                          }
                        }
                      }
                    }
                  }
                  JOINT RightHandRing1
                  {
                    OFFSET -2.885654 0.293261 -0.119232
                    CHANNELS 3 Zrotation Yrotation Xrotation
                    JOINT RightHandRing2
                    {
                      OFFSET -6.032835 -1e-06 -4e-06
                      CHANNELS 3 Zrotation Yrotation Xrotation
                      JOINT RightHandRing3
                      {
                        OFFSET -4.33881 0.0 -4e-06
                        CHANNELS 3 Zrotation Yrotation Xrotation
                        JOINT RightHandRing4
                        {
                          OFFSET -2.654903 -4e-06 -4e-06
                          CHANNELS 3 Zrotation Yrotation Xrotation
                          JOINT RightHandRingEnd
                          {
                            OFFSET -1.935122 0.0 4e-06
                            CHANNELS 3 Zrotation Yrotation Xrotation
                          }
                        }
                      }
                    }
                  }
                  JOINT RightHandPinky1
                  {
                    OFFSET -2.866241 1.503904 -0.60527
                    CHANNELS 3 Zrotation Yrotation Xrotation
                    JOINT RightHandPinky2
                    {
                      OFFSET -5.553177 -2e-06 0.0
                      CHANNELS 3 Zrotation Yrotation Xrotation
                      JOINT RightHandPinky3
                      {
                        OFFSET -3.062664 -1e-06 -4e-06
                        CHANNELS 3 Zrotation Yrotation Xrotation
                        JOINT RightHandPinky4
                        {
                          OFFSET -1.546529 2e-06 4e-06
                          CHANNELS 3 Zrotation Yrotation Xrotation
                          JOINT RightHandPinkyEnd
                          {
                            OFFSET -1.952341 0.0 -4e-06
                            CHANNELS 3 Zrotation Yrotation Xrotation
                          }
                        }
                      }
                    }
                  }
                }
              }
            }
          }
        }
      }
    }
    JOINT LeftLeg
    {
      OFFSET -8.443107 2.567604 10.043214
      CHANNELS 3 Zrotation Yrotation Xrotation
      JOINT LeftShin
      {
        OFFSET 43.229198 1e-06 -1e-06
        CHANNELS 3 Zrotation Yrotation Xrotation
        JOINT LeftFoot
        {
          OFFSET 42.298611 1e-06 1e-06
          CHANNELS 3 Zrotation Yrotation Xrotation
          JOINT LeftToeBase
          {
            OFFSET 14.165858 1e-06 0.0
            CHANNELS 3 Zrotation Yrotation Xrotation
            JOINT LeftToeEnd
            {
              OFFSET 6.7141 -0.234461 0.0
              CHANNELS 3 Zrotation Yrotation Xrotation
            }
          }
        }
      }
    }
    JOINT RightLeg
    {
      OFFSET -8.303923 2.592729 -10.047278
      CHANNELS 3 Zrotation Yrotation Xrotation
      JOINT RightShin
      {
        OFFSET -43.369682 0.0 1e-06
        CHANNELS 3 Zrotation Yrotation Xrotation
        JOINT RightFoot
        {
          OFFSET -42.260784 4e-06 2e-06
          CHANNELS 3 Zrotation Yrotation Xrotation
          JOINT RightToeBase
          {
            OFFSET -14.222245 -2e-06 -1e-06
            CHANNELS 3 Zrotation Yrotation Xrotation
            JOINT RightToeEnd
            {
              OFFSET -6.660062 0.232574 -2e-06
              CHANNELS 3 Zrotation Yrotation Xrotation
            }
          }
        }
      }
    }
  }
}
MOTION
Frames: 4
Frame Time: 0.03333333333333333
0.0 0.0 0.0 0.0 -0.0 0.0 0.33664 12.500275 100.830528 26.003168 -84.701653 160.675323 0.993382 -1.132934 -1.744712 -10.528023 0.445186 -0.811104 17.407982 2.343861 -2.108165 39.684326 0.578297 -0.437072 -2.178172 -0.187788 0.947847 -21.452412 1.381762 0.777345 5e-06 0.0 -0.0 -0.280632 0.202809 0.054207 -0.186938 0.152146 0.166743 -0.262943 0.275299 -0.039459 -35.457588 -76.279648 45.685963 35.558167 -48.007469 -40.906281 161.885849 0.212418 0.836308 -6.109278 21.269831 57.667793 17.63662 -26.322733 52.411213 -19.466663 -14.395602 29.410395 -0.0 -8.774823 -1e-06 15.286288 -16.955372 6.089515 -0.609776 -1.795654 -3.889329 -4.807091 -11.046813 -2.937849 3e-06 -20.976019 -2e-06 -5.019972 -25.03356 -4.031882 7e-06 -0.0 0.0 -10.634536 -5.686974 -3.565587 10.573272 -17.922955 -3.113902 0.0 -13.821211 1e-06 -0.501779 -31.181505 -4.027018 -10.034462 -58.405315 6.644837 -13.982716 -7.1502 -2.875041 13.772731 -8.40149 -3.218243 0.34773 -34.211555 0.771653 -0.963028 -17.733372 2.621017 -2e-06 -0.0 1e-06 -17.346422 -20.095222 -4.201779 21.757559 -1.638371 3.866428 0.0 -6.338824 1e-06 -1.69759 -22.591751 -6.194009 -1e-06 -3e-06 -2e-06 115.840187 -70.292427 80.800705 24.383781 -52.209511 -16.144566 151.667053 0.140481 -0.687198 27.44483 43.2757 87.902763 22.18211 -20.375879 49.933308 -16.701807 -16.743526 28.476524 -4e-06 -12.690597 -1e-06 16.696323 -17.254772 2.21938 -0.105919 -1.513855 -4.27588 -5.03904 -5.612871 -2.953557 4e-06 -11.020523 -3e-06 -6.111295 -15.895329 -3.840472 0.0 0.0 1e-06 -10.283369 -5.680287 -4.341838 11.028294 -11.302404 -2.372633 -1.384268 -14.238575 -6.320122 -0.625434 -26.924179 -3.827603 -4.093596 -51.076717 -4.018066 -13.708522 -7.363475 -3.720938 18.141148 -14.052736 -3.242675 8e-06 -18.787266 -4e-06 -0.42971 -8.456039 2.555502 -0.0 -0.0 -0.0 -15.923532 -20.094481 -5.473586 30.41921 -7.190823 1.735926 4e-06 -8.162921 -1e-06 -1.861899 -22.86146 -6.167942 -0.0 -4e-06 -1e-06 153.569672 -27.970087 -54.219933 61.487099 -34.58913 24.285227 -120.22084 27.308788 2.589358 -22.689539 1.585476 1.512092 -0.999998 0.0 0.0 -5.394274 -11.083328 -148.062332 -24.331194 -18.635902 138.798935 -102.793602 12.262705 -7.055672 -21.930035 0.630455 1.808275 -1.0 0.0 -1e-06 
0.0 0.0 0.0 0.0 -0.0 0.0 0.371866 12.497544 100.807594 26.127546 -84.693886 160.562088 1.030989 -1.09683 -1.769407 -10.53576 0.435646 -0.849055 17.398165 2.366177 -2.115257 39.722672 0.682289 -0.414403 -2.164317 -0.204281 0.860941 -21.576683 1.318449 0.819397 5e-06 -0.0 -0.0 -0.283414 0.183007 0.047325 -0.198521 0.116836 0.163078 -0.277283 0.271466 -0.049854 -35.048264 -76.231956 45.301945 35.489662 -48.043877 -40.918598 162.009659 0.265155 0.817823 -6.068169 21.255398 58.135662 17.636631 -26.322725 52.411182 -19.466661 -14.395594 29.410385 -3e-06 -8.774821 -2e-06 15.240259 -16.930206 6.080999 -0.609778 -1.795652 -3.889328 -4.807087 -11.046809 -2.93785 8e-06 -20.976015 -2e-06 -5.019968 -25.033556 -4.031879 5e-06 -0.0 -0.0 -10.634533 -5.686967 -3.565588 10.573275 -17.922951 -3.113899 5e-06 -13.821209 1e-06 -0.501776 -31.181498 -4.027012 -9.991538 -58.384525 6.580387 -13.982712 -7.150195 -2.875044 13.772729 -8.401492 -3.21824 0.347738 -34.211544 0.771655 -0.963028 -17.733366 2.621021 -1e-06 -1e-06 1e-06 -17.346413 -20.095213 -4.201784 21.757555 -1.638373 3.866429 2e-06 -6.338823 2e-06 -1.697589 -22.591743 -6.194005 -0.0 -4e-06 -2e-06 116.225136 -70.087303 80.487587 24.792997 -52.206287 -16.343658 151.65152 0.216008 -0.660709 27.331495 43.319447 88.013435 22.182116 -20.3759 49.933323 -16.701815 -16.74353 28.476536 -3e-06 -12.690601 0.0 16.752031 -17.265198 2.189745 -0.10592 -1.513856 -4.275882 -5.039041 -5.612873 -2.953557 3e-06 -11.020529 -1e-06 -6.111299 -15.895341 -3.84047 -0.0 -1e-06 0.0 -10.283373 -5.680289 -4.341839 11.028296 -11.302408 -2.372633 -1.384269 -14.238585 -6.320122 -0.62544 -26.924198 -3.827602 -4.077442 -51.157104 -4.037149 -13.708527 -7.363477 -3.72094 18.141151 -14.05274 -3.242675 6e-06 -18.787275 -2e-06 -0.429712 -8.456045 2.555504 -0.0 -0.0 0.0 -15.923536 -20.094486 -5.473585 30.419218 -7.190824 1.735927 3e-06 -8.162929 -1e-06 -1.861905 -22.861475 -6.167943 0.0 -3e-06 -1e-06 153.549042 -27.919537 -54.242558 61.530048 -34.69997 24.354513 -120.278595 27.242804 2.753981 -22.885532 1.577601 1.50872 -0.999999 0.0 -0.0 -5.420627 -11.161374 -147.949692 -24.303846 -18.796709 138.730621 -102.673752 12.287723 -7.090189 -21.987206 0.640243 1.803542 -1.000001 0.0 0.0 
0.0 0.0 0.0 0.0 -0.0 0.0 0.386714 12.512297 100.783447 26.457161 -84.683121 160.264725 1.053237 -1.05848 -1.791139 -10.536887 0.40821 -0.893709 17.413399 2.366605 -2.111233 39.753544 0.837747 -0.367848 -2.156385 -0.230625 0.777064 -21.708961 1.23969 0.787063 5e-06 0.0 -0.0 -0.285668 0.170505 0.0436 -0.207192 0.094451 0.161101 -0.289311 0.26955 -0.055444 -34.594341 -76.147263 44.82901 35.503414 -48.040085 -40.895451 162.042023 0.301113 0.824498 -6.014282 21.206821 58.51548 17.636627 -26.322721 52.411179 -19.466656 -14.395598 29.410385 -2e-06 -8.774819 -1e-06 15.191516 -16.916443 6.064431 -0.609776 -1.795654 -3.889325 -4.807086 -11.046804 -2.937849 8e-06 -20.976006 -1e-06 -5.019966 -25.033539 -4.031879 5e-06 -0.0 0.0 -10.63453 -5.686967 -3.565587 10.573273 -17.922945 -3.1139 3e-06 -13.821203 2e-06 -0.501776 -31.181488 -4.027011 -9.970168 -58.346237 6.520515 -13.982708 -7.150194 -2.875043 13.772728 -8.401488 -3.218241 0.347737 -34.211529 0.771657 -0.963029 -17.733358 2.621022 -1e-06 -1e-06 1e-06 -17.346411 -20.095203 -4.201782 21.757555 -1.638374 3.866428 1e-06 -6.33882 3e-06 -1.697588 -22.591734 -6.194003 -0.0 -4e-06 -2e-06 116.492645 -69.908661 80.310577 25.252785 -52.198841 -16.676224 151.555359 0.281609 -0.638835 27.210102 43.34317 88.020401 22.182123 -20.3759 49.933308 -16.701817 -16.743534 28.476532 -3e-06 -12.690602 0.0 16.824087 -17.27956 2.179953 -0.105919 -1.513855 -4.275882 -5.039042 -5.612872 -2.953556 4e-06 -11.020527 -0.0 -6.111301 -15.895334 -3.840469 0.0 0.0 0.0 -10.283373 -5.680287 -4.341838 11.028296 -11.302407 -2.372632 -1.38427 -14.238581 -6.32012 -0.625442 -26.924194 -3.827598 -4.104645 -51.260292 -4.012301 -13.708529 -7.363475 -3.720938 18.141151 -14.052743 -3.242673 5e-06 -18.787275 -0.0 -0.429712 -8.456045 2.555504 -0.0 1e-06 -0.0 -15.923541 -20.094484 -5.473582 30.419224 -7.190827 1.735928 2e-06 -8.162929 -1e-06 -1.861905 -22.861479 -6.167942 0.0 -3e-06 -1e-06 153.507385 -27.88887 -54.19434 61.602207 -34.738258 24.370192 -120.199898 27.208641 2.918147 -22.970819 1.572255 1.512658 -0.999997 0.0 -0.0 -5.470586 -11.230505 -148.030685 -24.379673 -18.897648 138.853073 -102.468529 12.375359 -7.073764 -21.983658 0.649311 1.806487 -1.000002 0.0 -1e-06 
0.0 0.0 0.0 0.0 -0.0 0.0 0.387444 12.519514 100.754967 26.978506 -84.669174 159.795715 1.063746 -1.043658 -1.812798 -10.535875 0.385991 -0.93904 17.44821 2.344589 -2.117458 39.796021 1.027965 -0.289156 -2.154144 -0.272427 0.718187 -21.83563 1.12704 0.684426 5e-06 0.0 -0.0 -0.28636 0.164621 0.042941 -0.205876 0.084923 0.160326 -0.294573 0.268178 -0.056087 -34.125256 -76.053619 44.276249 35.543213 -47.993969 -40.845726 162.002151 0.327844 0.847688 -5.983469 21.152479 58.690464 17.636623 -26.322737 52.411194 -19.46666 -14.395602 29.410389 -1e-06 -8.774821 -1e-06 15.157792 -16.9077 6.032811 -0.609777 -1.795652 -3.889326 -4.807087 -11.046811 -2.93785 4e-06 -20.976019 1e-06 -5.019971 -25.03356 -4.031878 4e-06 1e-06 -0.0 -10.634533 -5.686969 -3.565586 10.573275 -17.922951 -3.1139 1e-06 -13.821206 2e-06 -0.501779 -31.181498 -4.027013 -9.95178 -58.283875 6.455124 -13.982712 -7.150198 -2.87504 13.77273 -8.401489 -3.218242 0.347729 -34.211552 0.771658 -0.963028 -17.73337 2.621019 -1e-06 -0.0 1e-06 -17.346416 -20.095215 -4.201779 21.757563 -1.63837 3.866428 1e-06 -6.338822 3e-06 -1.697593 -22.591747 -6.194005 -0.0 -4e-06 -2e-06 116.587288 -69.755859 80.297676 25.722458 -52.181171 -17.001133 151.377625 0.342555 -0.617011 27.170958 43.339806 87.95356 22.182112 -20.375889 49.933319 -16.701813 -16.74353 28.476532 -4e-06 -12.690598 0.0 16.886932 -17.279799 2.178589 -0.105919 -1.513856 -4.275882 -5.03904 -5.612869 -2.953557 4e-06 -11.020527 -3e-06 -6.111296 -15.89533 -3.840472 -0.0 1e-06 1e-06 -10.283369 -5.680288 -4.341839 11.028293 -11.302404 -2.372634 -1.384267 -14.238579 -6.320122 -0.625435 -26.924183 -3.827605 -4.151519 -51.368233 -3.954012 -13.708522 -7.363475 -3.72094 18.141148 -14.052739 -3.242676 7e-06 -18.78727 -3e-06 -0.429712 -8.45604 2.555503 -0.0 -0.0 -0.0 -15.923532 -20.094482 -5.473588 30.41921 -7.190824 1.735923 3e-06 -8.162922 -1e-06 -1.8619 -22.861464 -6.167942 0.0 -3e-06 -1e-06 153.474609 -27.873369 -54.134045 61.683338 -34.761356 24.348364 -120.077293 27.219481 2.982377 -22.91807 1.567917 1.514061 -0.999999 0.0 -0.0 -5.536937 -11.290085 -148.426895 -24.602211 -18.880919 139.338654 -102.117386 12.499788 -6.958829 -21.933506 0.653504 1.812225 -1.000001 0.0 -0.0 
